<svg height="100%" width="100%" stroke="#ffffff" version="1.2" viewbox="0 0 1000 800" xmlns="http://www.w3.org/2000/svg">
	<metadata>
		<binding-rules>
			<rule>
				<name>region</name>
				<event>
					<type>bind</type>
				</event>
				<conditions>
					<all>
						<fact>Region</fact>
						<operator>equal</operator>
						<value>${city}</value>
					</all>
				</conditions>
			</rule>
		</binding-rules>
	</metadata>

	<defs>
		<g data-svg-templates='true'>
			<svg id="Cloudy" preserveAspectRatio="xMidYMid meet" viewBox="-1 0 200 160">
				<path stroke="grey"
					d="M16.888,8.614c0.008-0.117,0.018-0.233,0.018-0.352c0-2.851-2.311-5.161-5.16-5.161c-1.984,0-3.705,1.121-4.568,2.763c-0.32-0.116-0.664-0.182-1.023-0.182c-1.663,0-3.011,1.348-3.011,3.01c0,0.217,0.024,0.427,0.067,0.631c-1.537,0.513-2.647,1.96-2.647,3.67c0,2.138,1.733,3.87,3.871,3.87h10.752c2.374,0,4.301-1.925,4.301-4.301C19.486,10.792,18.416,9.273,16.888,8.614 M15.186,16.003H4.433c-1.66,0-3.01-1.351-3.01-3.01c0-1.298,0.827-2.444,2.06-2.854l0.729-0.243l-0.16-0.751C4.02,8.993,4.003,8.841,4.003,8.692c0-1.186,0.965-2.15,2.151-2.15c0.245,0,0.49,0.045,0.729,0.131l0.705,0.256l0.35-0.664c0.748-1.421,2.207-2.303,3.807-2.303c2.371,0,4.301,1.929,4.301,4.301c0,0.075-0.007,0.148-0.012,0.223l-0.005,0.073L15.99,9.163l0.557,0.241c1.263,0.545,2.079,1.785,2.079,3.159C18.626,14.46,17.082,16.003,15.186,16.003">
				</path>
			</svg>

			<svg id="Sun" preserveAspectRatio="xMidYMid meet" viewBox="-1 0 200 160">
				<path stroke="yellow"
					d="M5.114,5.726c0.169,0.168,0.442,0.168,0.611,0c0.168-0.169,0.168-0.442,0-0.61L3.893,3.282c-0.168-0.168-0.442-0.168-0.61,0c-0.169,0.169-0.169,0.442,0,0.611L5.114,5.726z M3.955,10c0-0.239-0.193-0.432-0.432-0.432H0.932C0.693,9.568,0.5,9.761,0.5,10s0.193,0.432,0.432,0.432h2.591C3.761,10.432,3.955,10.239,3.955,10 M10,3.955c0.238,0,0.432-0.193,0.432-0.432v-2.59C10.432,0.693,10.238,0.5,10,0.5S9.568,0.693,9.568,0.932v2.59C9.568,3.762,9.762,3.955,10,3.955 M14.886,5.726l1.832-1.833c0.169-0.168,0.169-0.442,0-0.611c-0.169-0.168-0.442-0.168-0.61,0l-1.833,1.833c-0.169,0.168-0.169,0.441,0,0.61C14.443,5.894,14.717,5.894,14.886,5.726 M5.114,14.274l-1.832,1.833c-0.169,0.168-0.169,0.441,0,0.61c0.168,0.169,0.442,0.169,0.61,0l1.833-1.832c0.168-0.169,0.168-0.442,0-0.611C5.557,14.106,5.283,14.106,5.114,14.274 M19.068,9.568h-2.591c-0.238,0-0.433,0.193-0.433,0.432s0.194,0.432,0.433,0.432h2.591c0.238,0,0.432-0.193,0.432-0.432S19.307,9.568,19.068,9.568 M14.886,14.274c-0.169-0.168-0.442-0.168-0.611,0c-0.169,0.169-0.169,0.442,0,0.611l1.833,1.832c0.168,0.169,0.441,0.169,0.61,0s0.169-0.442,0-0.61L14.886,14.274z M10,4.818c-2.861,0-5.182,2.32-5.182,5.182c0,2.862,2.321,5.182,5.182,5.182s5.182-2.319,5.182-5.182C15.182,7.139,12.861,4.818,10,4.818M10,14.318c-2.385,0-4.318-1.934-4.318-4.318c0-2.385,1.933-4.318,4.318-4.318c2.386,0,4.318,1.933,4.318,4.318C14.318,12.385,12.386,14.318,10,14.318 M10,16.045c-0.238,0-0.432,0.193-0.432,0.433v2.591c0,0.238,0.194,0.432,0.432,0.432s0.432-0.193,0.432-0.432v-2.591C10.432,16.238,10.238,16.045,10,16.045">
				</path>
			</svg>

			<svg id="Rain" preserveAspectRatio="xMidYMid meet" viewBox="-1 0 200 160">
				<path stroke="blue"
					d="M10,16.513c-2.249,0-4.071-1.822-4.071-4.07c0-0.226-0.182-0.407-0.407-0.407c-0.225,0-0.407,0.182-0.407,0.407c0,2.697,2.187,4.885,4.885,4.885c0.225,0,0.407-0.183,0.407-0.407S10.225,16.513,10,16.513M10,1.044c-0.814,0-6.513,6.92-6.513,11.398c0,3.597,2.916,6.513,6.513,6.513c3.597,0,6.513-2.916,6.513-6.513C16.513,7.964,10.813,1.044,10,1.044 M10,18.141c-3.148,0-5.699-2.65-5.699-5.92C4.301,8.372,9.593,2.011,10,2.011c0.407,0,5.698,6.36,5.698,10.209C15.698,15.49,13.147,18.141,10,18.141">
				</path>
			</svg>

			<svg id="Lighting" preserveAspectRatio="xMidYMid meet" viewBox="-1 0 200 160">
				<path stroke="white"
					d="M10.943,13.822c0-0.234-0.19-0.425-0.425-0.425c-0.117,0-0.224,0.048-0.3,0.125L7.67,16.07c-0.077,0.077-0.125,0.184-0.125,0.301c0,0.234,0.19,0.424,0.425,0.424h1.523L7.67,18.619c-0.077,0.077-0.125,0.183-0.125,0.3c0,0.235,0.19,0.425,0.425,0.425c0.117,0,0.223-0.047,0.3-0.124l2.548-2.549c0.077-0.076,0.125-0.183,0.125-0.3c0-0.235-0.19-0.425-0.425-0.425h-0.001H8.996l1.823-1.823C10.896,14.046,10.943,13.939,10.943,13.822 M16.883,5.014c0.002-0.037,0.006-0.073,0.006-0.11c0-1.407-1.141-2.548-2.548-2.548c-0.642,0-1.228,0.24-1.676,0.631c-0.906-1.4-2.477-2.33-4.27-2.33c-2.559,0-4.669,1.886-5.035,4.342C1.864,5.354,0.75,6.696,0.75,8.301c0,1.877,1.521,3.398,3.397,3.398H16.04c1.876,0,3.397-1.521,3.397-3.398C19.438,6.717,18.351,5.389,16.883,5.014 M16.04,10.849H4.147c-1.405,0-2.548-1.143-2.548-2.548c0-1.184,0.804-2.201,1.957-2.476c0.337-0.08,0.593-0.358,0.644-0.701c0.306-2.063,2.11-3.618,4.194-3.618c1.44,0,2.345,0.301,3.132,1.518c0.135,0.207,0.776,0.77,1.021,0.804c0.039,0.006,0.117,0.008,0.117,0.008c0.205,0,0.403-0.073,0.56-0.21c0.311-0.271,0.707-0.421,1.116-0.421c0.937,0,1.699,0.762,1.698,1.708l-0.005,0.062c-0.018,0.402,0.249,0.762,0.639,0.861c1.128,0.289,1.915,1.303,1.915,2.465C18.588,9.706,17.445,10.849,16.04,10.849">
				</path>
			</svg>
		</g>

		<g data-svg-defs='true'>
			<svg id='icons' data-default-field="Forecast" />
		</g>
	</defs>

	<g data-is-main='true' fill="#ddd" stroke="black" stroke-width="3">
		<g data-binding-rules="region" data-binding-city="Alytus">
			<path
				d="M593.4 571l1.7 6.7-0.4 1.8-0.1 2.7-1.3 1.8 0.2 0.8 2.9 3.2 0.8 2.1-0.8 4.4-0.7 2.5 0 2.3 0.6 2 3.4 2.2 15.1 2 2.8-0.2 5.6-1.7 2.2-1.5 4-1.8 3-1.7 2.3-0.2 4.7 1 5 2.3 1.1 1 0.4 1.6-0.7 3.7 0.3 1.8 1.2 1.5 1.8 0.1 1.4-0.5 2.7-1.8 2.1-0.4 3.3 0.6 2.3 0.8 1.8-0.3 8-5.9 13.9-5.1 8.5-0.7 0.3 13.3-0.7 3.2-3.1 1.6-4.6 1-1.7 1-1.3 2.2-0.7 4.1-1 8.9-1.2 4.3-6.1 8-18.3 18.2-0.6 2.8 0.8 2.3 1.7 1.5 4.1 2 1.7 1.1 1 1.5 0.8 1.9 1.2 4.2 3.1 6.1-5 3-0.7 1.9 0.1 5.2-3.2 2-1.5 1.9-1.1 0.1-0.3 1 0.8 4.4 2 6.3 2.3 4.9 1.5 5.6-0.3 7.9-2.2 5-3 1.6-11 1.8-3.1-0.2-2.5-2.5-2.2-5.7-1.9-0.4-4.1 3.1-10.8 2.2-8.6 5-19.5 17.5-6.1 3.1-6.1-0.1-5.4-1.6-5.7 0.3-3.3-0.7-1.8-2.7-3-8.3-4.7-5.8-5.4-1.9-5.5 1-10.5 5.7-5.1 1.4-10.8 0.1-2.8-0.6-5-3.3-2.7-1.1-2.6 0.5-12.9 7.5-1.3 0.2-1.5-0.4-3-1.8-1.2-0.3-2.6 1.1-3 2.2-10.6 1.5-8.4 3.6-2.6 0.2-2.9-1-15.3-9.3-5.8-1.5 0.7-1.7 0.1-1.6-0.5-1.5-1-1.3-1.8-1.5-1.4-2-0.7-2.7 0.1-3.1 1.7-2.4 2.1-1.7 2.5-4.4 0-6.6-2.5-13.5-1.3-6.2-1.9-6.5-2.3-5.8-2.9-4.2-1.5-0.9-3.7-1-1.7-1.2-1.6-2.2-3.1-6-1.6-2.5-3.1-2.7 0.5-5.4 1.6-9.4-0.7-3.8 0-2 0.5-2 1.3-3.1 0.5-2.5 1.9-5 3-3.9 2.5-2 4.1-1.6 5.4-1 1.4-0.8 0.3-1.6-0.4-0.8-2.1-1.4-0.8-1.2 1.3-2 1.6-1.5 12.8-4.9 0.3-3-0.5-5.4 0.4-2.6 1.2-2.2 1.4-1.6 14.3-11.5 1.6-0.4 1.8 0.6 2.8 2.9 1.4 2.4 3.1 3.2 8.8 2.5 1.8 1.8 15.9-0.7 0.8 2 2.3-0.7 4.6-2.8 5.7-4.7 9.9-3.8 1-1.2-0.2-1.7-1.7-2-0.7-1.3-0.5-1.9 0.4-2.1 1-1.6 2.3-1.8 3.9-1.3 3.3 0.1 3.4 1 1.5 0.8 3.1 0.9 18.7-3.8 3.4-1.3 3.3-0.6 2.6 0.5 3.6 2.5 1.6 2 3 1.4 2.4 0.5 15.1-1.9z">
			</path>
			<svg data-default-id='icons' y="620" x="490">
				<use data-binding-city="Alytus" data-attr-href="weather" href="" />
			</svg>
		</g>

		<g data-param-sesnor-name="Dropped Objects" data-binding-rules="region" data-binding-city="Kaunas">
			<path
				d="M500.8 266.6l3.2 0.1 2.6 1.2 0.9 1.9 0.6 2.1 0.7 5.3 0.8 2.5 1.7 1.9 2.4 1 3.2-0.3 1.4-1.1 1.5-0.2 2 0.8 3.4 3.1 1.8 2.4 5 5.1 0.9 2.3 0 2.6-0.3 2.4-1.1 4.6 0.1 1.6 0.9 0.8 1.7-0.7 3.1-2.9 1.5-0.8 2.2-0.2 2.8 0.7 3.3-0.9 8.3-4.1 1.7-1.5 1.8-0.5 1.4 0.6 2.1 2.6 1.7 2.4 1.9 1.9 3.7 1.1 2.3 0 1.1-1.1 0.4-2.9 1.2 0 8 4.3 2.4 2 2.1 2.6 2.2 5.4 4.5 4.7-2.6 8.9-0.7 1.8-0.7 2.8 0.2 2.9-0.4 2.8-0.4 3.7 1.2 3.5 3.3 5.4 1.3 10.5 1.4 2.6 2.1 1.8 6.7 2.5 2.2 1.5 0.2 1.1-1.1 0.6-1.7 0.4-1.2 1.3-0.5 2.3 0.5 4.2 1.2 2.8 1.7 2.1 1.5 1.4 2.8 2 1.4 1.4 0.4 1.7-0.2 2.3 0.2 3.6 1.8 3.5 2 1.3 2-0.2 3.4-1.7 1.6 0.3 0.8 1.3 2.3 7.8 5.1 2.6 1.8 3.1 0.6 3.1 0 1.5-0.5 1.5-2.4 2.2-3 1.7-2.8 2.8-2.1 1.3-1.5 1.6-2 4.3-3.3 4.9 1.5 0.6 2.3 2.8 8.7 4.4 9.1 8.6 3.1 1.3 7.3 0.5 3.1 1.3 3 2.4 3.7 5 0.9 1.9-4.9 3.9-3 6.1-2.3 2.3-11.1 6.3-2 1.6-1.1 1.5-0.5 1.8-1.1 5.6-2.4 6-0.6 2.8-0.4 5.7-0.4 3.4-1.2 1.4-1.8 0.4-6.3-1.5-1.9 0-1 1-2.1 3.5-7 2.1-2.9 1.8-1.4 2.2-0.3 2.9 1.1 4.7 0.5 3.7-0.4 3.4 2.5 2.9 0.3 2.9-1 4.4-0.8 1.8-1.3 1.2-1.6 0.2-1.5-0.3-1.3-0.8-1.7 0.4-0.8 1.8-0.5 2.7-0.5 6.2-1.2 3.7-1.9 2.3-15.1 1.9-2.4-0.5-3-1.4-1.6-2-3.6-2.5-2.6-0.5-3.3 0.6-3.4 1.3-18.7 3.8-3.1-0.9-1.5-0.8-3.4-1-3.3-0.1-3.9 1.3-2.3 1.8-1 1.6-0.4 2.1 0.5 1.9 0.7 1.3 1.7 2 0.2 1.7-1 1.2-9.9 3.8-5.7 4.7-4.6 2.8-2.3 0.7-0.8-2-15.9 0.7-1.8-1.8 2-4 1.4-2 0.5-2.2-0.4-3-2.9-8.6-1.1-2-1.2-0.5-3.1 0.4-2-0.4-1.8-1.6-2-2.8-3.8-3-1.1-1.4-0.3-1.8 0.9-2.1 2.7-3.3 0.1-1.6-1.4-2-4.8-1.8-1.5-1.8-1.9-1.3-0.8-0.8 0-1.2 1.2-1.5 1.8-0.9 4.2-1.5 1.6-1 0.9-2.6 0.2-2.9-3.1-13.7 0.4-3.7-0.1-2.2-0.8-2-1.6-2.3-0.6-1.9 0.3-3.1-1.3-1.8-1.3-0.5-2.9-0.1-0.6-1 0.3-1.5 1.8-2.1 1.8-4.1 1.9-1-0.6-3.1-1.5-3.9-0.6-3.3 0.5-5.1-0.5-1.7-1.3-1.8-3.7-3.9-4.6-3.7-3.1-1.5-2.5-0.3-4 2.2-4.1 0.9-3.8-12.2-1.5-2-1.9-2-8.3-2.1-0.8-1.7 0.3-1.6 1-1.8 2.5-2.3 1.8-0.8 1.8-0.4 7.4 0.8 2.8-0.6 2-2.2 1.9-3.8 1.8-2.3 2-0.7 3.4-0.4 1.3-1.2 0.1-2.7-1-2.7-3.2-2.9-3.8-0.3-3.9 0.6-3.7-0.5-8.7-7.3-3.5-1 1.9-9.2 2.8-5.3 2.1-3.1 0.6-2.3 0.1-2.8-0.4-3.2-0.2-5.5 0.3-2.9 0.8-2.4 3.1-3.9-3.4-4.2-4.3-0.7-9.6 2.2-1.5-0.3-1.3-1.2-0.8-1.9-2.8-2.4-2-0.6-6.8 1.3-10.7 0-3.1-1.1-1.1-1.3-0.6-3.6-0.9-2.1-2.9-2.2-1.6-0.7-1.3 0.1-2.1 1.6-1.8 0.5-3.2 0.4-2.3-0.9-1.8-0.2-1.5 0.4-3 2.3-4.9 0.9-4.3 0-1.9-1.2-0.3-1.8 1-1.9 2.3-2.4 0.2-1.3-0.6-1.2-11.6-9.1-2.1-2.4-1-0.7-1.1 0.4 0.2 2.9-0.4 0.9-1.4 0.9-1.4 2.4-1.8 1.2-2.2 2.7-1.8 0.9-1-0.4-0.8-1.3-0.6-3.5-3.2-3.6-3.3-2.6-1.6-2.2-0.9-2.3-0.1-2.1 0.7-4.4 0.1-2.5-0.3-2.3-1.1-2.2-1.1-0.8-1.4 0.1-2.8 1.1-3-0.2-3.7-3.3-0.3-3 0.7-2.7-0.5-1.8-0.9-1-3.6-0.7-3.4-2.4-1.9-2.5-3.8-7.5 5.3-4.5 9.8-3.8 12.6-1.9 2.2 0.6 1.2 1.3 0.8 4 1.2 1.2 4.4 1.2 26.2-10.5 6.2-4.2 1.5-1.6 1-1.8 0.5-2.2 3.2-5.2 3.5-2.6 10.5-1.3 3.7 0.1 3.1 0.7 1.2 1 0.8 1.6 1.4 4.8 1.1 1.9 1.6 0.9 2.2-0.9 1.5-1.4 8.6-5.3 12.9 11 3.7 2.3 5.8 1.6 2.8 0 1.8-0.8 0.6-3.8 0.7-0.6 3-0.8 2.5-2.3 1.1-0.4 1.4 0.3 1.8 0.9 2.1 2.3 3.3 1.2 0.9 0.6 0.2 1.3-0.8 2.2-1 1.8-1.2 3.6 2 4.8 4.9 0.2 2.7 1.8 1.4 0.6 1.1-0.5 2.6-5.1 1.7-2.3 3.2-3.3 7.8-5.6 23.2-11.6z">
			</path>
			<svg data-default-id='icons' y="350" x="470">
				<use data-binding-city="Kaunas" data-attr-href="weather" href="" />
			</svg>
		</g>

		<g data-binding-rules="region" data-binding-city="Marijampole">
			<path
				d="M423.5 413.2l3.5 1 8.7 7.3 3.7 0.5 3.9-0.6 3.8 0.3 3.2 2.9 1 2.7-0.1 2.7-1.3 1.2-3.4 0.4-2 0.7-1.8 2.3-1.9 3.8-2 2.2-2.8 0.6-7.4-0.8-1.8 0.4-1.8 0.8-2.5 2.3-1 1.8-0.3 1.6 0.8 1.7 8.3 2.1 1.9 2 1.5 2 3.8 12.2 4.1-0.9 4-2.2 2.5 0.3 3.1 1.5 4.6 3.7 3.7 3.9 1.3 1.8 0.5 1.7-0.5 5.1 0.6 3.3 1.5 3.9 0.6 3.1-1.9 1-1.8 4.1-1.8 2.1-0.3 1.5 0.6 1 2.9 0.1 1.3 0.5 1.3 1.8-0.3 3.1 0.6 1.9 1.6 2.3 0.8 2 0.1 2.2-0.4 3.7 3.1 13.7-0.2 2.9-0.9 2.6-1.6 1-4.2 1.5-1.8 0.9-1.2 1.5 0 1.2 0.8 0.8 1.9 1.3 1.5 1.8 4.8 1.8 1.4 2-0.1 1.6-2.7 3.3-0.9 2.1 0.3 1.8 1.1 1.4 3.8 3 2 2.8 1.8 1.6 2 0.4 3.1-0.4 1.2 0.5 1.1 2 2.9 8.6 0.4 3-0.5 2.2-1.4 2-2 4-8.8-2.5-3.1-3.2-1.4-2.4-2.8-2.9-1.8-0.6-1.6 0.4-14.3 11.5-1.4 1.6-1.2 2.2-0.4 2.6 0.5 5.4-0.3 3-12.8 4.9-1.6 1.5-1.3 2 0.8 1.2 2.1 1.4 0.4 0.8-0.3 1.6-1.4 0.8-5.4 1-4.1 1.6-2.5 2-3 3.9-1.9 5-0.5 2.5-1.3 3.1-0.5 2 0 2 0.7 3.8-1.6 9.4-0.5 5.4-3.4-2.9-13.7-5.2-6.5-4-10.5-8.9-3.1-1.5-3.5 0.8-4 1.7-3.9 0-3.1-4.3 0.1-3 0.9-3.3 0.7-2.8-1.1-1.6-5.8-0.7-2-1.3-1-1.9-1.7-4.6-1.9-1.8-1.7-0.4-3.9 0.8-1.8-0.2-10.2-5.3-3.6-0.5-4.2 2-4.6 8.4-3.1 2.6-10.3-18.2-4.5-10.1-1-11.4 1.2-22.8 3.8-13.9 0.7-5.4-0.2-3.1-1-6.8 0-3 0.7-2 3.7-5.6 0.1-1.1-0.8-2.7 0.4-1.5 2-0.8 1.8-1.6 3-1.6 1.3-1.6 2.4-4 5.2-3.9 2.6-2.8 2.2-5.1 0.4-5.2-0.7-5.5-2.5-11.9-1.4-3.8-2.1-2.4-10.1-4.8-1.4-2.3 1.9-4-2.3-0.9-1.6-1.8-1.2-2-1.1-1.3-1.6-0.5-9.6 0.1-2.8-1.5-2-3.6-2.2-6.6-2.9-13.4-1.8-6-1.6-1.9 4.7-2.2 1.4 1.5 3.1 2.3 0.9 0.4 2.3 0.1 14.3-2.6 5.1-2.3 2-1.5 8.4-2.9 8.7-1.2 9.2 2.6 2.4-1.6 2.1-1.9 3.2-1.5 5.3-1.4 54 10.1 15.7-2.2z">
			</path>
			<svg data-default-id='icons' y="480" x="330">
				<use data-binding-city="Marijampole" data-attr-href="weather" href="" />
			</svg>
		</g>

		<g data-binding-rules="region" data-binding-city="Panevezys">
			<path
				d="M856.4 149l-3.4 6 0 5.5-0.2 3-1.1 2-2.1 3-1.7 1.8-3.5 2.6-2.2 2.8-1.2 2.7-0.8 3.4-4.6 7-1.5 4.2-2.7 9.5-1 1.7-1.1 0.7-3.1-0.5-3.3-1.4-1.3-0.3-1.6 1-2.4 5.1-1.3 1.9-6.4 7.4-1-3.7-0.6-0.7-2-0.5-18.4 0.6-2.3 0.6-2.6 1.9-7 3.6-3.1-4.9-0.7-1.4-1.5-1.3-1.7 0.1-1.2 0.9-1.9 1.9-1 0.2-1.1-0.6-1.1-1.5-1.2-3.1-0.7-2.2-3.3-3.3-12.9 7.4-1.2 1.4-1.2 2.2 1 4.5-0.3 2.1-0.9 0.7-1.6-0.2-3.7-1.2-3.2 0.3-19.6 7.8-4.9 0.9-2.5 0.1-1.6-0.6-0.2-0.9 0.5-2.7-0.5-1.2-2.5-2.2-1-1.3-1.8-2.9-3.2-2.1-10.7-0.9-5.1 1.3-3.2 1.8-2.4 0.3-5.4-0.5-1.4 0.4-0.9 0.8-1.2 2.1-1.4 1-1.5-0.2-4.9-2.1-2.1 0.2-2.6 1.1-1.9 0.4-11.1-1.7 0.2 3.8-0.8 3.7 1 1.4 3.5 2.8 0.8 1.8 0.1 1.4-0.8 2.1-1.5 1.6-1.9 0.5-1.9-0.9-1.1-1.3-1.2-0.7-5 1.4-1.3 1.2 0.6 1.2 1.6 1.2 2.3 1.4 1.9 1.8 1.7 2.7 1.1 3.7 0.1 2-0.6 1.5-3 2.5-1.8 1.8-1.4 2.5-0.5 2.8 0.2 5.1 0.5 2.2 0.5 1.1 0 1.9-3.3 5.6-3.3 1-1.7 1.7 0.1 1.5 0.9 1.6 3.1 2.3 1.2 1.3 0.2 1.5-1 1.3-2.8 0.5-2-0.5-4-2.1-1.9-0.3-1.7 0.8-2 3.4-1 2.9-1.1 5.2-1.1 2.9-2 3.2-6.1 6.6-1.6 0.8-1.3-0.8-2.6 0.2-4.8 3.8-4.5-4.7-2.2-5.4-2.1-2.6-2.4-2-8-4.3-1.2 0-0.4 2.9-1.1 1.1-2.3 0-3.7-1.1-1.9-1.9-1.7-2.4-2.1-2.6-1.4-0.6-1.8 0.5-1.7 1.5-8.3 4.1-3.3 0.9-2.8-0.7-2.2 0.2-1.5 0.8-3.1 2.9-1.7 0.7-0.9-0.8-0.1-1.6 1.1-4.6 0.3-2.4 0-2.6-0.9-2.3-5-5.1-1.8-2.4-3.4-3.1-2-0.8-1.5 0.2-1.4 1.1-3.2 0.3-2.4-1-1.7-1.9-0.8-2.5-0.7-5.3-0.6-2.1-0.9-1.9-2.6-1.2-3.2-0.1 1.5-3.7 2.7-3.8 2.5-5 1.5-3.9 1.7-0.9 3.7 0.2 1.7-0.7 2.3-2.3 1.4-0.3 3.3 0.1 1.1-1.6 0-2.6-2.3-9 0.3-3.4 1.4-1.6 1.9-1.2 1.6-1.9 0.9-2.2-0.3-4.5 0.1-2.5-0.9-7.5-0.8-1.8-2.7-3.3-0.9-4.9-0.9-1.1-2.1-1.2-1.9-0.5-2.7-2.9-2.2-8.8 6.5-0.7 1.3-1.9-0.2-3.8 1.2-2.4 2.2-1.4 4.7-2.2 3.6-2.8 1.6-3.1-0.5-4.6 2.1-4.5 0.3-3.1-0.6-4.7-1-1.9-1.5-1-1.6-0.4-1.9-1-1.8-1.3-1.8-2.2-0.8-2.1-0.4-2.3-0.2-8 0.2-3.4 0.9-2.4 1.6-0.8 2 1.2 1.7 0.3 1.2-1.7 0.8-2.4 1.1-6.1 1.5-3.3 3.9-5.8 0.5-2.9 0.1-3.1 0.4-2.2 1.1-2.7 1.1-1.7 1.8-1.1 5.2-1.5 1.1-1.7 0.4-2.5 0.1-4.6-0.3-2.2-0.8-1.3-2.1 0.9-2.1-0.9-0.8-3.3 0.6-2.9 1-2.3 1.4-2.1 0.4-1.9-0.4-1.4-0.3-4.8 4.5-0.9 20.5-10.8 5.2-0.9 5.5 2.2 10.8 7.9 5.6 1.6 5.8-2.6 9.8-5.7 3.2-3.4 13.8-18.8 6.7-5.3 21.5-9.6 1.7-0.1 3.8 1.5 1.4-0.3 1.1-2.7 0.2-3.4 0.6-3.3 2.4-2.2 3.6 1.2 3 5.1 4.4 13 4.4 18.6 1.9 5.6 1.7 3.2 5.7 6.3 1.6 3 3 9.8 5 9.2 6.1 4.5 58.7 10.3 11.6-2.2 8.5 4.2 2.9 0.6 10.1-0.9 2.1 1 1.2 2.6 3.2 10.3 1.5 3.2 2 2.1 9.8 6.8 17.8 20.2 15.3 10.3z">
			</path>
			<svg data-default-id='icons' y="100" x="600">
				<use data-binding-city="Panevezys" data-attr-href="weather" href="" />
			</svg>
		</g>

		<g data-binding-rules="region" data-binding-city="Siauliai">
			<path
				d="M547.2 57.8l0.3 4.8 0.4 1.4-0.4 1.9-1.4 2.1-1 2.3-0.6 2.9 0.8 3.3 2.1 0.9 2.1-0.9 0.8 1.3 0.3 2.2-0.1 4.6-0.4 2.5-1.1 1.7-5.2 1.5-1.8 1.1-1.1 1.7-1.1 2.7-0.4 2.2-0.1 3.1-0.5 2.9-3.9 5.8-1.5 3.3-1.1 6.1-0.8 2.4-1.2 1.7-1.7-0.3-2-1.2-1.6 0.8-0.9 2.4-0.2 3.4 0.2 8 0.4 2.3 0.8 2.1 1.8 2.2 1.8 1.3 1.9 1 1.6 0.4 1.5 1 1 1.9 0.6 4.7-0.3 3.1-2.1 4.5 0.5 4.6-1.6 3.1-3.6 2.8-4.7 2.2-2.2 1.4-1.2 2.4 0.2 3.8-1.3 1.9-6.5 0.7 2.2 8.8 2.7 2.9 1.9 0.5 2.1 1.2 0.9 1.1 0.9 4.9 2.7 3.3 0.8 1.8 0.9 7.5-0.1 2.5 0.3 4.5-0.9 2.2-1.6 1.9-1.9 1.2-1.4 1.6-0.3 3.4 2.3 9 0 2.6-1.1 1.6-3.3-0.1-1.4 0.3-2.3 2.3-1.7 0.7-3.7-0.2-1.7 0.9-1.5 3.9-2.5 5-2.7 3.8-1.5 3.7-23.2 11.6-7.8 5.6-3.2 3.3-1.7 2.3-2.6 5.1-1.1 0.5-1.4-0.6-2.7-1.8-4.9-0.2-2-4.8 1.2-3.6 1-1.8 0.8-2.2-0.2-1.3-0.9-0.6-3.3-1.2-2.1-2.3-1.8-0.9-1.4-0.3-1.1 0.4-2.5 2.3-3 0.8-0.7 0.6-0.6 3.8-1.8 0.8-2.8 0-5.8-1.6-3.7-2.3-12.9-11-8.6 5.3-1.5 1.4-2.2 0.9-1.6-0.9-1.1-1.9-1.4-4.8-0.8-1.6-1.2-1-3.1-0.7-3.7-0.1-10.5 1.3-3.5 2.6-3.2 5.2-0.5 2.2-1 1.8-1.5 1.6-6.2 4.2-26.2 10.5-4.4-1.2-1.2-1.2-0.8-4-1.2-1.3-2.2-0.6-12.6 1.9-9.8 3.8-5.3 4.5-4.1-2.1-1-7 3.6-5.6-0.3-1.3-2.9-2.3-6.4-9.7-1.9-2.1-7.8-4.9-2.4-2.3-1.1-2.2-1.4-3.4-0.3-1.9 0.1-1.7 1.2-3.5-0.7-1.2-3.6-1.7-1.9-2.1-0.9-2.1-0.3-1.5 0.1-2.6 5.3-4.8 1.4-0.9 1.4-1.7 0.2-2.3-1-4.9-0.2-2.5 1.2-9.5-0.5-2.7-2.1-5.1 0.2-1.9 2.2-2.1 1.9-0.8 2.3-0.7 2.1-0.9 2.4-1.8 1.7-1.7 0.8-2.9-0.5-5.6 0.3-2.4 1.3-1.8 2.7-0.8 2.3-0.3 2.6-1.3 1.6-2.2 2.5-7.4 5-6.1-0.6-3.3 2.1-1.6 2.2-1.2 0.2-1-2.7-1.9-1.4-1.5-1.9-3.2-1.4-1.1-1.2 0.4-1.5 2.8-1.3 1.2-1.8 0.6-2.2-0.4-1.6-1.7-2.4-3.3-0.6-2.2 0-1.5 0.8-1.1 2.5-1.9 0.9-1.2 0.7-1.5-0.2-6.4-1.4-4.9 0.3-2.5 1.6-1.7 8-1.7 1.4-1.1 1.1-1.9 2.1-0.5 2.8-1.4-2.8-3.4-0.7-2-0.5-2.5 0.4-2.5 0.6-2.2 0-1.6-1.3-1.4-2.2-0.6-3.7 0.4-5.2 1.6-1.7 1.1-1.3 1.6-2.3 1-3 0.5-6.5-0.9-7.4 3.6-2.3 0-2.4-0.8-2-1.6-0.8-2.4-0.3-2.2-0.8-1.3-2.6-0.1-0.9-0.5 0.2-2.2 1.6-3-0.6-1.3-0.9-1-6.2-2.1 2.3-17.8 4.8-7 2.8-2.6 2.8-3.9 1-3.3-0.1-2.6-1.8-2.6-0.4-1 0.7-1.8 1.4-2 1.2-3.1 2-1.2 2.1 0 4.5 1.4 2.4 0.1 2.4-0.6 2.4-1.8 1.4-2.6 0.8-2.6 0.1-2.7-1-2.4-1.1-1.8-0.4-1.9 0.8-1.5 1.3-0.8 2.2-2.1 4.5 2.4 7.5 8 2.9 1.2 2.6-0.3 24-10 11.2-7.9 6.1-1.1 5.5 3.1 4.1 8.8 6 15.2 7.8 6 8.5-2.1 8.5-9.2-1.4-3.2 3.1-2 19.7-4.6 3.7 0.7 29.1 12.5 6.1 0.4 10.2-6.1 5.5-1.6 11.8 0.6 4.6-0.8 1.4 0.5 1.5 2.1 0.2 5.2 5.3 0.9 11.7-2.7 5.6 0.1 21 6.8 15.9 12.6 5.7 3.2 5.4 1z">
			</path>
			<svg data-default-id='icons' y="120" x="350">
				<use data-binding-city="Siauliai" data-attr-href="weather" href="" />
			</svg>
		</g>

		<g data-binding-rules="region" data-binding-city="Taurage">
			<path
				d="M261.3 233.9l-0.1 2.6 0.3 1.5 0.9 2.1 1.9 2.1 3.6 1.7 0.7 1.2-1.2 3.5-0.1 1.7 0.3 1.9 1.4 3.4 1.1 2.2 2.4 2.3 7.8 4.9 1.9 2.1 6.4 9.7 2.9 2.3 0.3 1.3-3.6 5.6 1 7 4.1 2.1 3.8 7.5 1.9 2.5 3.4 2.4 3.6 0.7 0.9 1 0.5 1.8-0.7 2.7 0.3 3 3.7 3.3 3 0.2 2.8-1.1 1.4-0.1 1.1 0.8 1.1 2.2 0.3 2.3-0.1 2.5-0.7 4.4 0.1 2.1 0.9 2.3 1.6 2.2 3.3 2.6 3.2 3.6 0.6 3.5 0.8 1.3 1 0.4 1.8-0.9 2.2-2.7 1.8-1.2 1.4-2.4 1.4-0.9 0.4-0.9-0.2-2.9 1.1-0.4 1 0.7 2.1 2.4 11.6 9.1 0.6 1.2-0.2 1.3-2.3 2.4-1 1.9 0.3 1.8 1.9 1.2 4.3 0 4.9-0.9 3-2.3 1.5-0.4 1.8 0.2 2.3 0.9 3.2-0.4 1.8-0.5 2.1-1.6 1.3-0.1 1.6 0.7 2.9 2.2 0.9 2.1 0.6 3.6 1.1 1.3 3.1 1.1 10.7 0 6.8-1.3 2 0.6 2.8 2.4 0.8 1.9 1.3 1.2 1.5 0.3 9.6-2.2 4.3 0.7 3.4 4.2-3.1 3.9-0.8 2.4-0.3 2.9 0.2 5.5 0.4 3.2-0.1 2.8-0.6 2.3-2.1 3.1-2.8 5.3-1.9 9.2-15.7 2.2-54-10.1-5.3 1.4-3.2 1.5-2.1 1.9-2.4 1.6-9.2-2.6-8.7 1.2-8.4 2.9-2 1.5-5.1 2.3-14.3 2.6-2.3-0.1-0.9-0.4-3.1-2.3-1.4-1.5-4.7 2.2-1-1.1-4.2-2.4-17.8 5.4-28.2-3.5 0-6.5 0.3-1.9 1.9-4.4 0.7-2.8 2-3.7-0.2-3.5-3-1.7-1.4 0.2-3-0.4-2.9-0.9-3.5 0.7-1.9-0.2-1.8-0.9-3.2-3.1-1.6-1-1.7-0.1-4.4 0.7-1.2 0.6-3.1 3-2 1.3-1.6-0.3-0.7-1.4 1-4.8 0.1-1.5-0.3-1.8-2.6-5.8-2.1-6.7-1-1.9-1.6-1.6-16.2-7.2-5.3-0.8-2-1-0.5-2.4 1.7-3.9 12.8-14.6 2.8-2.5 2.3-2.6 1.3-2.5 1.3-8.3 2.6-1.5-0.1-2.5-1.5-1.8-5.6-1.5-6.8-3.2-3.5-2.9-1.7-0.8-1.5 0.3-3 2.6-1.7 0.1-1.8-2-3.5-14.7-0.8-2.3-2.5-2.8-0.9-2.2-1.1-9.9-0.6-1.6-2.5-2.1-0.3-2.9 8.8-3.9 1.3-1.2 1.5-3.4-0.8-2.7 19.3-2.8 2.2 0.8 2.2 0.2 1.9-0.6 4.1-4.2 0.9-1.4 0.2-1.3-0.1-3.6 0.6-2.2 1.3-3 2-0.8 2.2 0.7 2.2 0 2.2-0.5 2.9-2.2 5.9-2.6 14-1.7 4.2-0.4 5.1 2.5 2 0.5 4.2-0.3 1.9 0.6 2 1.1 2 0.4 13-2.1z">
			</path>
			<svg data-default-id='icons' y="295" x="210">
				<use data-binding-city="Taurage" data-attr-href="weather" href="" />
			</svg>
		</g>

		<g data-param-sesnor-name="Communications" data-binding-rules="region" data-binding-city="Utena">
			<path
				d="M988.7 364.3l-0.5-1.2-3.6-6.6-1.5-1.2-2.4-1.2-2.4 0-7.8 2.4-1.5 1-1.2 1.3-8.4 5.3-19 5.5-22.9-1.1-8.5-2-6.1-3.9-3.2-1.4-2 0.1-1.6 0.7-1.7 1.2-3 0.6-2.2-1.2-1.1-2.9 0.2-2.9 1.2-2.9 1.1-2.1 0.1-2.1-1.1-2.1-2.2-2.1-4.5-2.2-2.3-0.6-10.7 0.4-1.6 0.5-2.2 1.9-0.7 1.1-1.6 3.5-1 1.3-1.7 1.4-2.2 1.2-3 0.7-1.8-0.5-0.9-1-0.7-2.5-1.2-1.5-1.2-0.2-4.9 1.3-2-0.5-1.5-1.4-1.7-3.4-2-2.6-6.5 3.6-6.2-2.1-7.4-4.7-3.4 12-1 2.5-5.2 6-4.8 3.1-0.9 1.7-0.5 2-0.6 4.5 1.3 4.6 2.6 3.3 5.1 4.8 2.1 3.4 2.7 3.4 1.8 1.5 3.1 1.7 2.9 2.2 1.8 0.6 0.9 1.3-0.5 1.8-4.1 3.4-0.6 1.7 0.3 1.4 1.6 1.7-0.5 1.2-1.3 1.5-3.4 3.1-0.3 2.3 0.3 2.2 0.9 1.5-0.9 0.8-2.3 0.2-9.2-1.8-1.5-0.9-1-2.3-5.3-0.1-17.6 4.2-23.2 7.2-2.2 1.2-2.5 0.5-2.8-0.4-10.7-3.8-8.1-0.2-1-6.8-1.4-3.6-2.9-2.3-2.5-1.3-6.9-1.7-1.2-1.1-0.4-1.6 0.9-3.4 1-4.6-0.3-6 5.7-2.3 1.6-0.9 2.5-2.2 2.9-1.8 1.9-2.4 1.6-0.9 2-0.6 1.3-0.8 0.3-1.3-2.3-1.8-8.2-4.9-2-0.1-1.7 0.4-1.7-0.1-1.1-1.2-0.6-3.6 0.7-1.8 2.7-3.4 1.4-3.7-0.1-1.6-1-1.4-2.8-0.6-2.3 0.4-2 0.9-1.6 0.2-1.7-0.8-2.1-3.2-4.7-3.7-1.5-1.6-0.8-1.3 0.5-5.9-13 1-1.6-0.4-1.6-0.8 0.2-5.9-0.2-2.5-0.7-2-0.9-0.6-1.2 0.1-6.8 3.4-3.3 0.9-1.5-0.4-0.6-1 0.3-3.9-0.8-1.7-1.7-0.6-8.3-0.2-2.7-1-2.1-1.6-1.9-3.8-0.6-2-0.1-1.7 0.2-2 0.6-1.7 1-1.3 2.4-1.5 0.9-1 0.1-1.7-1.2-2.6-4.1-4.8-23.5-17.9 3.3-5.6 0-1.9-0.5-1.1-0.5-2.2-0.2-5.1 0.5-2.8 1.4-2.5 1.8-1.8 3-2.5 0.6-1.5-0.1-2-1.1-3.7-1.7-2.7-1.9-1.8-2.3-1.4-1.6-1.2-0.6-1.2 1.3-1.2 5-1.4 1.2 0.7 1.1 1.3 1.9 0.9 1.9-0.5 1.5-1.6 0.8-2.1-0.1-1.4-0.8-1.8-3.5-2.8-1-1.4 0.8-3.7-0.2-3.8 11.1 1.7 1.9-0.4 2.6-1.1 2.1-0.2 4.9 2.1 1.5 0.2 1.4-1 1.2-2.1 0.9-0.8 1.4-0.4 5.4 0.5 2.4-0.3 3.2-1.8 5.1-1.3 10.7 0.9 3.2 2.1 1.8 2.9 1 1.3 2.5 2.2 0.5 1.2-0.5 2.7 0.2 0.9 1.6 0.6 2.5-0.1 4.9-0.9 19.6-7.8 3.2-0.3 3.7 1.2 1.6 0.2 0.9-0.7 0.3-2.1-1-4.5 1.2-2.2 1.2-1.4 12.9-7.4 3.3 3.3 0.7 2.2 1.2 3.1 1.1 1.5 1.1 0.6 1-0.2 1.9-1.9 1.2-0.9 1.7-0.1 1.5 1.3 0.7 1.4 3.1 4.9 7-3.6 2.6-1.9 2.3-0.6 18.4-0.6 2 0.5 0.6 0.7 1 3.7 6.4-7.4 1.3-1.9 2.4-5.1 1.6-1 1.3 0.3 3.3 1.4 3.1 0.5 1.1-0.7 1-1.7 2.7-9.5 1.5-4.2 4.6-7 0.8-3.4 1.2-2.7 2.2-2.8 3.5-2.6 1.7-1.8 2.1-3 1.1-2 0.2-3 0-5.5 3.4-6 9.6 6.4 10.5 11.9 16.8 14.7 4.3 6.7 3.9 9.2 9 16.2 10.7 8.2 23.5 11.4 9.6 2.7 9.7 0.8 1.6 7.1 0.6 8.1-0.4 7.9-1.6 6.6-3.3 5.3-4.2 4.8-3.3 5.5-0.8 7.2 3.2 6.3-0.5 3.5-6 6.1-1.5 3.4-2.2 11.1-1.2 2.8-4.1 7.6-1.6 5.6 0.7 3.1 2.7 1.8 10.1 3.8 2.9 0.2 10.3-2.8 28.1 5 3.9 3 1.6 5-1.9 4.8-4.1 3.2-4.3 1.1z">
			</path>
			<svg data-default-id='icons' y="230" x="750">
				<use data-binding-city="Utena" data-attr-href="weather" href="" />
			</svg>
		</g>

		<g data-binding-rules="region" data-binding-city="Vilnius">
			<path
				d="M988.7 364.3l-6.6 1.8-2.6 1.6-4.9 4.8-2.7 3.8-1.2 3.1-1.1 8.3-1.9 8.6-2.6 4.4-3.8 0.6-17.9-8-2.4 0.2-1.5 1.5-1 1.8-1 1.1-1.7 0.6-1.4 0-18.8-4.9-7.7 1.3-5.3 8.5-0.5 3.4 0.2 7.3-0.3 3.6-0.8 2.5-6.3 13.7-5.8 9-2.5 2.8-6.2 3.6-20.6 4.2-3.2-0.1-6.1-1.4-3.1-0.1-6.4 2.7-2 1.8-0.6 2.2-0.3 2.7-1.1 3-3.6 4.2-3.9 3.1-3.4 3.5-1.8 5.5 0.3 2.7 1.4 5.9 0.1 2.4-0.7 2.5-2 0.6-1.7 0.8-3.7 3.4-1.8 2.6-0.5 4 0.5 15-0.2 3-0.7 3.2-1.6 5.6-0.2 3.7 1.1 5.8 4.2 10.4 1 5.7-0.9 5.8-2.3 4.6-3.3 3.3-10.4 6.2-2.6 3.6-1.8 5.9-0.8 7.7 0.1 6.1-0.6 5.6-3 6.3-7.8 9.5-3.2 6.3-0.2 7.3 2.3 3.8 3.7 1.4 7.3-0.5 10.2-5.4 2.6-0.6 2.3 1.3 1 2.4 0.5 2.9 1.8 5.1 1.3 1.3 2-0.7 0.7 0.2 1.7 1.8 1.5 2.2 1.3 2.6 1.1 3.2 0.7 1 1.8 0.9 0.4 1.8-0.4 1.3-2 2.7-0.5 1.3-0.2 13.3-1.3 4.6-4 2.9-2 0.3-6.3-0.8-1.9 0.8-2.7 3.8-1.7 1-3.8 0.1-15-2.5-4.6-2.2-3.8-3.7-1.3-5.2 1.2-2.1 4.9-1.7 1.2-2.1-0.9-2.5-4.1-2.2 0.4-2.9 3.4-2 4 0.3 1.5-1.1-12-16.4-0.8-1.6-1.2-1.1-2.1-0.6-4.3 2.1-6.8 10.1-4.1 2.7-14 0.8-10.8-3.9-3 0.5-2.2 3.8-3.4 13.7-2.8 6.1-7 7.8-7.4 4.8-7.6 1.3-13.4-5.3-7.8-1.1-7.9 0.9-0.8 0.5-3.1-6.1-1.2-4.2-0.8-1.9-1-1.5-1.7-1.1-4.1-2-1.7-1.5-0.8-2.3 0.6-2.8 18.3-18.2 6.1-8 1.2-4.3 1-8.9 0.7-4.1 1.3-2.2 1.7-1 4.6-1 3.1-1.6 0.7-3.2-0.3-13.3-8.5 0.7-13.9 5.1-8 5.9-1.8 0.3-2.3-0.8-3.3-0.6-2.1 0.4-2.7 1.8-1.4 0.5-1.8-0.1-1.2-1.5-0.3-1.8 0.7-3.7-0.4-1.6-1.1-1-5-2.3-4.7-1-2.3 0.2-3 1.7-4 1.8-2.2 1.5-5.6 1.7-2.8 0.2-15.1-2-3.4-2.2-0.6-2 0-2.3 0.7-2.5 0.8-4.4-0.8-2.1-2.9-3.2-0.2-0.8 1.3-1.8 0.1-2.7 0.4-1.8-1.7-6.7 1.9-2.3 1.2-3.7 0.5-6.2 0.5-2.7 0.8-1.8 1.7-0.4 1.3 0.8 1.5 0.3 1.6-0.2 1.3-1.2 0.8-1.8 1-4.4-0.3-2.9-2.5-2.9 0.4-3.4-0.5-3.7-1.1-4.7 0.3-2.9 1.4-2.2 2.9-1.8 7-2.1 2.1-3.5 1-1 1.9 0 6.3 1.5 1.8-0.4 1.2-1.4 0.4-3.4 0.4-5.7 0.6-2.8 2.4-6 1.1-5.6 0.5-1.8 1.1-1.5 2-1.6 11.1-6.3 2.3-2.3 3-6.1 4.9-3.9-0.9-1.9-3.7-5-3-2.4-3.1-1.3-7.3-0.5-3.1-1.3-9.1-8.6-8.7-4.4-2.3-2.8-1.5-0.6 3.3-4.9 2-4.3 1.5-1.6 2.1-1.3 2.8-2.8 3-1.7 2.4-2.2 0.5-1.5 0-1.5-0.6-3.1-1.8-3.1-5.1-2.6-2.3-7.8-0.8-1.3-1.6-0.3-3.4 1.7-2 0.2-2-1.3-1.8-3.5-0.2-3.6 0.2-2.3-0.4-1.7-1.4-1.4-2.8-2-1.5-1.4-1.7-2.1-1.2-2.8-0.5-4.2 0.5-2.3 1.2-1.3 1.7-0.4 1.1-0.6-0.2-1.1-2.2-1.5-6.7-2.5-2.1-1.8-1.4-2.6-1.3-10.5-3.3-5.4-1.2-3.5 0.4-3.7 0.4-2.8-0.2-2.9 0.7-2.8 0.7-1.8 2.6-8.9 4.8-3.8 2.6-0.2 1.3 0.8 1.6-0.8 6.1-6.6 2-3.2 1.1-2.9 1.1-5.2 1-2.9 2-3.4 1.7-0.8 1.9 0.3 4 2.1 2 0.5 2.8-0.5 1-1.3-0.2-1.5-1.2-1.3-3.1-2.3-0.9-1.6-0.1-1.5 1.7-1.7 3.3-1 23.5 17.9 4.1 4.8 1.2 2.6-0.1 1.7-0.9 1-2.4 1.5-1 1.3-0.6 1.7-0.2 2 0.1 1.7 0.6 2 1.9 3.8 2.1 1.6 2.7 1 8.3 0.2 1.7 0.6 0.8 1.7-0.3 3.9 0.6 1 1.5 0.4 3.3-0.9 6.8-3.4 1.2-0.1 0.9 0.6 0.7 2 0.2 2.5-0.2 5.9 1.6 0.8 1.6 0.4 13-1-0.5 5.9 0.8 1.3 1.5 1.6 4.7 3.7 2.1 3.2 1.7 0.8 1.6-0.2 2-0.9 2.3-0.4 2.8 0.6 1 1.4 0.1 1.6-1.4 3.7-2.7 3.4-0.7 1.8 0.6 3.6 1.1 1.2 1.7 0.1 1.7-0.4 2 0.1 8.2 4.9 2.3 1.8-0.3 1.3-1.3 0.8-2 0.6-1.6 0.9-1.9 2.4-2.9 1.8-2.5 2.2-1.6 0.9-5.7 2.3 0.3 6-1 4.6-0.9 3.4 0.4 1.6 1.2 1.1 6.9 1.7 2.5 1.3 2.9 2.3 1.4 3.6 1 6.8 8.1 0.2 10.7 3.8 2.8 0.4 2.5-0.5 2.2-1.2 23.2-7.2 17.6-4.2 5.3 0.1 1 2.3 1.5 0.9 9.2 1.8 2.3-0.2 0.9-0.8-0.9-1.5-0.3-2.2 0.3-2.3 3.4-3.1 1.3-1.5 0.5-1.2-1.6-1.7-0.3-1.4 0.6-1.7 4.1-3.4 0.5-1.8-0.9-1.3-1.8-0.6-2.9-2.2-3.1-1.7-1.8-1.5-2.7-3.4-2.1-3.4-5.1-4.8-2.6-3.3-1.3-4.6 0.6-4.5 0.5-2 0.9-1.7 4.8-3.1 5.2-6 1-2.5 3.4-12 7.4 4.7 6.2 2.1 6.5-3.6 2 2.6 1.7 3.4 1.5 1.4 2 0.5 4.9-1.3 1.2 0.2 1.2 1.5 0.7 2.5 0.9 1 1.8 0.5 3-0.7 2.2-1.2 1.7-1.4 1-1.3 1.6-3.5 0.7-1.1 2.2-1.9 1.6-0.5 10.7-0.4 2.3 0.6 4.5 2.2 2.2 2.1 1.1 2.1-0.1 2.1-1.1 2.1-1.2 2.9-0.2 2.9 1.1 2.9 2.2 1.2 3-0.6 1.7-1.2 1.6-0.7 2-0.1 3.2 1.4 6.1 3.9 8.5 2 22.9 1.1 19-5.5 8.4-5.3 1.2-1.3 1.5-1 7.8-2.4 2.4 0 2.4 1.2 1.5 1.2 3.6 6.6 0.5 1.2z">
			</path>
			<svg data-default-id='icons' y="450" x="680">
			<use data-binding-city="Vilnius" data-attr-href="weather" href="" />
			</svg>
		</g>

		<g data-param-sesnor-name="Web Server Subscribtion Load" data-binding-rules="region" data-binding-city="Klaipeda">
			<path
				d="M12 355.3l-11-2.9 12.7-22.2 7.2-17.7 6.9-24.4 1.8-25.3 1.1-5.1-0.9-1.4 0.9-2.9-1.5-6 0.5-18.9-1.4-8.2 5.5 7 2.3 13.3 0.4 26.3-0.4 3.7-1.6 5.1-0.3 3.6 0 11.3-2 4.9-2.7 4.9-0.9 4.7 3.3 4 0 1.9-2.5 3.2-3.1 5.6-2.7 6.7-1.1 6.2-2.3 6-8.3 11.2 0.1 5.4z m150.9-98.5l0.8 2.7-1.5 3.4-1.3 1.2-8.8 3.9 0.3 2.9 2.5 2.1 0.6 1.6 1.1 9.9 0.9 2.2 2.5 2.8 0.8 2.3 3.5 14.7 1.8 2 1.7-0.1 3-2.6 1.5-0.3 1.7 0.8 3.5 2.9 6.8 3.2 5.6 1.5 1.5 1.8 0.1 2.5-2.6 1.5-1.3 8.3-1.3 2.5-2.3 2.6-2.8 2.5-12.8 14.6-1.7 3.9 0.5 2.4 2 1 5.3 0.8 16.2 7.2 1.6 1.6 1 1.9 2.1 6.7 2.6 5.8 0.3 1.8-0.1 1.5-1 4.8 0.7 1.4 1.6 0.3 2-1.3 3.1-3 1.2-0.6 4.4-0.7 1.7 0.1 1.6 1 3.2 3.1 1.8 0.9 1.9 0.2 3.5-0.7 2.9 0.9 3 0.4 1.4-0.2 3 1.7 0.2 3.5-2 3.7-0.7 2.8-1.9 4.4-0.3 1.9 0 6.5-3.2-0.4-18.4 4.8-2.2 2.3-1.9 2.7-3.2 2.4-3.9 0.3-4.6-1.4-3.7-3.2-1.6-4.9 0-4.9-0.5-3.3-2.1-1.5-4.4 0.4-4.4 3.5-1.5 0.6-1.6-0.6-4.2-2.8-6-1.5-3.3-2.2-5.7-5.1-11.8-2.6-2.9-2.5-2.9-3.9-12-9.4-6.9-3.4-17.2-0.5-6.2-5-10.5-18.3-5.2-5.2-4.3 0.6-13.9 11.7 0.2-1.5-0.8-6.8 0-2.3 1.1-1.2 1.2 0.5 1.3-0.2 1-3-0.4-2.4-1.1-3.5-1.4-3.1-2.5-2.7-0.5-3.1 0.1-6.8-1.8-0.2-9.8 9.4-0.9-2.2 0.4-0.9 6.5-15 1.4-2.3 2.7-3.3 0-7.3-2-12.1-2.1-8.9-0.2-2.4-2.4-2.8-1.6-2.4-0.8-2.9 0.6-8.3-0.6-3.1-6.3-17-1.3-5.3-0.5-5.7-1.1-3-7-12.4-1.7-1.8-1.5-1-1.1-2-0.7-7.5-1.6-5.9-2.7-25.5 0-13.4 0.4-3.3 1.5-4.2 0.4-2.8 0-26.1-0.8-10.7 6.4-1.6 10 0 6.8-2 2.6-5.7 1.2-8.4 2.9-9.9 4.3-6.7 6-6.6 6.4-5.4 5.2-2.7 7.7-0.4 2.6-0.9 23.7-18.3 6.3-3.2 15.1-0.7 47.7-22.6-0.6 3.1-2.2 1.9-6.2 3.2-1.1 1.5-0.5 2.2 0.3 1.8 0.9 1.8 1.3 1.2 1.5 1.9 1.2 2.6 0 6.4 0.4 3.1 0.6 2.4 1.9 2.6 1 1.7 4.9 11.4 0.7 3-0.5 1.3-1.4 0.8-1.7 0.2-1.6 0.7-1.1 1.3-1.1 3.3-1.9 3.4-2 5.1-4.1 8.9-3.1 2.4-8.3-0.1-2.4 0.5-1.4 1.3-1.7 2.3-1.4 1.2-1.8 0.5-6.5 0.4-1.9 1-8.1 7.8-1.1 6.3-5.9 11.6-1.7 2.4-1.6 1.3-3.9 1-2.1 1.6-0.7 1.9 0.1 1.7 0.7 3.8-0.7 12.4 0.2 2.8 0.6 2.7 0.8 1.8 3.1 4.8 0.6 1.6 0.5 2.3-0.7 1.5-2.5 2.2-0.5 1.5-0.8 1.1-9 7.4-2.3 2.7-1.6 3.1 0.2 3.5 7.1 0.7 3.8-1.4 3.2-2.9 0.9 0.4 0.3 1.4 0 3.8 2 3.2 2.1 2.9 0.2 1.3-1.5 2.6-0.4 1.4 0.7 1.9 1.4 0.4 1.9-0.2 2.1-0.7 8.1-0.2 4-1.5 2.8-0.1 1.2 0.8 0.5 1.2-0.5 1.6-0.2 3.4-1 3.2 0.2 1.8 3.3 5.8 1 3 0.7 4.3 0.8 1.8 2 3.4 0.5 2 5.1 7.4 9 7.9z">
			</path>
			<svg data-default-id='icons' y="200" x="30">
				<use data-binding-city="Klaipeda" data-attr-href="weather" href="" />
			</svg>
		</g>

		<g data-binding-rules="region" data-binding-city="Telsiai">
			<path
				d="M281.9 18.1l-2.2 2.1-1.3 0.8-0.8 1.5 0.4 1.9 1.1 1.8 1 2.4-0.1 2.7-0.8 2.6-1.4 2.6-2.4 1.8-2.4 0.6-2.4-0.1-4.5-1.4-2.1 0-2 1.2-1.2 3.1-1.4 2-0.7 1.8 0.4 1 1.8 2.6 0.1 2.6-1 3.3-2.8 3.9-2.8 2.6-4.8 7-2.3 17.8 6.2 2.1 0.9 1 0.6 1.3-1.6 3-0.2 2.2 0.9 0.5 2.6 0.1 0.8 1.3 0.3 2.2 0.8 2.4 2 1.6 2.4 0.8 2.3 0 7.4-3.6 6.5 0.9 3-0.5 2.3-1 1.3-1.6 1.7-1.1 5.2-1.6 3.7-0.4 2.2 0.6 1.3 1.4 0 1.6-0.6 2.2-0.4 2.5 0.5 2.5 0.7 2 2.8 3.4-2.8 1.4-2.1 0.5-1.1 1.9-1.4 1.1-8 1.7-1.6 1.7-0.3 2.5 1.4 4.9 0.2 6.4-0.7 1.5-0.9 1.2-2.5 1.9-0.8 1.1 0 1.5 0.6 2.2 2.4 3.3 1.6 1.7 2.2 0.4 1.8-0.6 1.3-1.2 1.5-2.8 1.2-0.4 1.4 1.1 1.9 3.2 1.4 1.5 2.7 1.9-0.2 1-2.2 1.2-2.1 1.6 0.6 3.3-5 6.1-2.5 7.4-1.6 2.2-2.6 1.3-2.3 0.3-2.7 0.8-1.3 1.8-0.3 2.4 0.5 5.6-0.8 2.9-1.7 1.7-2.4 1.8-2.1 0.9-2.3 0.7-1.9 0.8-2.2 2.1-0.2 1.9 2.1 5.1 0.5 2.7-1.2 9.5 0.2 2.5 1 4.9-0.2 2.3-1.4 1.7-1.4 0.9-5.3 4.8-13 2.1-2-0.4-2-1.1-1.9-0.6-4.2 0.3-2-0.5-5.1-2.5-4.2 0.4-14 1.7-5.9 2.6-2.9 2.2-2.2 0.5-2.2 0-2.2-0.7-2 0.8-1.3 3-0.6 2.2 0.1 3.6-0.2 1.3-0.9 1.4-4.1 4.2-1.9 0.6-2.2-0.2-2.2-0.8-19.3 2.8-9-7.9-5.1-7.4-0.5-2-2-3.4-0.8-1.8-0.7-4.3-1-3-3.3-5.8-0.2-1.8 1-3.2 0.2-3.4 0.5-1.6-0.5-1.2-1.2-0.8-2.8 0.1-4 1.5-8.1 0.2-2.1 0.7-1.9 0.2-1.4-0.4-0.7-1.9 0.4-1.4 1.5-2.6-0.2-1.3-2.1-2.9-2-3.2 0-3.8-0.3-1.4-0.9-0.4-3.2 2.9-3.8 1.4-7.1-0.7-0.2-3.5 1.6-3.1 2.3-2.7 9-7.4 0.8-1.1 0.5-1.5 2.5-2.2 0.7-1.5-0.5-2.3-0.6-1.6-3.1-4.8-0.8-1.8-0.6-2.7-0.2-2.8 0.7-12.4-0.7-3.8-0.1-1.7 0.7-1.9 2.1-1.6 3.9-1 1.6-1.3 1.7-2.4 5.9-11.6 1.1-6.3 8.1-7.8 1.9-1 6.5-0.4 1.8-0.5 1.4-1.2 1.7-2.3 1.4-1.3 2.4-0.5 8.3 0.1 3.1-2.4 4.1-8.9 2-5.1 1.9-3.4 1.1-3.3 1.1-1.3 1.6-0.7 1.7-0.2 1.4-0.8 0.5-1.3-0.7-3-4.9-11.4-1-1.7-1.9-2.6-0.6-2.4-0.4-3.1 0-6.4-1.2-2.6-1.5-1.9-1.3-1.2-0.9-1.8-0.3-1.8 0.5-2.2 1.1-1.5 6.2-3.2 2.2-1.9 0.6-3.1 21.8-10.4 7.7 0.6 3.2 1.6 6.3 4.8 3.3 1.4 50.5-1.8 10.8 2.6 0.5 0.2z">
			</path>
			<svg data-default-id='icons' y="90" x="150">
				<use data-binding-city="Telsiai" data-attr-href="weather" href="" />
			</svg>
		</g>
	</g>
</svg>
